<svg xmlns="http://www.w3.org/2000/svg" viewBox="0 0 512 512" width="24" height="24"><path d="M459.37 151.72c.34 4.89.34 9.79.34 14.7 0 150.99-115.39 325.52-325.52 325.52-64.7 0-124.53-18.94-174.78-51.3 8.72.99 17.63 1.49 26.7 1.49 52.42 0 100.77-17.89 139.28-47.83-49.01-.93-90.49-33.19-104.59-77.61 6.87 1.3 13.97 2.02 21.18 2.02 10.35 0 20.51-1.41 30.07-3.95-51.25-10.26-89.7-55.37-89.7-109.42v-1.4c15.15 8.41 32.52 13.45 51.17 14.02-30.52-20.37-50.68-54.83-50.68-93.54 0-20.56 5.51-39.84 15.12-56.37 54.73 67.2 136.42 111.3 228.71 115.25-1.89-8.22-2.84-16.77-2.84-25.4 0-61.69 50.17-111.86 111.87-111.86 32.21 0 61.27 13.8 82.57 36.21 25.81-5.07 50.14-14.5 71.68-27.49-8.48 26.48-26.43 48.55-49.62 62.43 22.82-2.69 44.33-8.81 64.63-17.69-15.1 22.79-34.04 42.75-55.78 58.91z"/></svg>
