<svg xmlns="http://www.w3.org/2000/svg" viewBox="0 0 448 512" width="24" height="24"><path d="M224,202.66c-56.64,0-102.66,46.02-102.66,102.66,0,56.64,46.02,102.66,102.66,102.66,56.64,0,102.66-46.02,102.66-102.66C326.66,248.68,280.64,202.66,224,202.66zM224,348.62c-68.44,0-124.62-56.18-124.62-124.62S155.56,99.38,224,99.38c68.44,0,124.62,56.18,124.62,124.62S292.44,348.62,224,348.62zM437.25,112.75c-7.12,0-12.88,0-18.12,0-27.88,0-49.77,0-69.45,0-20.57,0-39.34,8.03-53.78,22.46-14.44,14.44-22.46,33.21-22.46,53.78,0,19.68,0,41.57,0,69.45,0,7.12,0,12.88,0,18.12,0,27.88,0,49.77,0,69.45,0,20.57,8.03,39.34,22.46,53.78,14.44,14.44,33.21,22.46,53.78,22.46,27.88,0,49.77,0,69.45,0,7.12,0,12.88,0,18.12,0,27.88,0,49.77,0,69.45,0,20.57-8.03,39.34-22.46,53.78-14.44,14.44-33.21,22.46-53.78,22.46-27.88,0-49.77,0-69.45,0-7.12,0-12.88,0-18.12,0-27.88,0-49.77,0-69.45,0-20.57,0-39.34-8.03-53.78-22.46-14.44-14.44-22.46-33.21-22.46-53.78,0-27.88,0-49.77,0-69.45,0-7.12,0-12.88,0-18.12,0-27.88,0-49.77,0-69.45,0-20.57,0-39.34-8.03-53.78-22.46-14.44-14.44-22.46-33.21-22.46-53.78,0-27.88,0-49.77,0-69.45,0-7.12,0-12.88,0-18.12,0-27.88,0-49.77,0-69.45,0-20.57,0-39.34,8.03-53.78,22.46-14.44,14.44-22.46,33.21-22.46,53.78,0,27.88,0,49.77,0,69.45,0,7.12,0,12.88,0,18.12,0,27.88,0,49.77,0,69.45,0,20.57,8.03,39.34,22.46,53.78,14.44,14.44,33.21,22.46,53.78,22.46,27.88,0,49.77,0,69.45,0,7.12,0,12.88,0,18.12,0,27.88,0,49.77,0,69.45,0,20.57-8.03,39.34-22.46,53.78-14.44,14.44-33.21,22.46-53.78,22.46-27.88,0-49.77,0-69.45,0-7.12,0-12.88,0-18.12,0-27.88,0-49.77,0-69.45,0-20.57,0-39.34-8.03-53.78-22.46-14.44-14.44-22.46-33.21-22.46-53.78,0-27.88,0-49.77,0-69.45,0-7.12,0-12.88,0-18.12,0-27.88,0-49.77,0-69.45,0-20.57,0-39.34-8.03-53.78-22.46-14.44-14.44-22.46-33.21-22.46-53.78,0-27.88,0-49.77,0-69.45,0-7.12,0-12.88,0-18.12,0-27.88,0-49.77,0-69.45,0-20.57,0-39.34-8.03-53.78-22.46-14.44-14.44-22.46-33.21-22.46-53.78,0-27.88,0-49.77,0-69.45,0-7.12,0-12.88,0-18.12,0-27.88,0-49.77,0-69.45,0-20.57-8.03-39.34-22.46-53.78-14.44-14.44-22.46-33.21-22.46-53.78,0-27.88,0-49.77,0-69.45,0-7.12,0-12.88,0-18.12,0C438.26,161.72,448,192.92,448,224S438.26,286.28,437.25,112.75z"/></svg>
